<svg id="Layer_1" data-name="Layer 1" xmlns="http://www.w3.org/2000/svg" viewBox="0 0 60 70">
  <title>icons</title>
  <g>
    <path d="M59.768,6.115a1.138,1.138,0,0,0-.99-.99A31.088,31.088,0,0,0,32.978,14L25.393,21.58,14.445,22.992a1.138,1.138,0,0,0-.659.324L3.23,33.872a1.138,1.138,0,0,0,.6,1.924l7.981,1.478,1.568,1.568L10.039,40.65a1.138,1.138,0,0,0-.263,1.806L22.437,55.117a1.138,1.138,0,0,0,1.8-.263l1.809-3.339,1.568,1.568L29.1,61.065a1.138,1.138,0,0,0,.782.879,1.111,1.111,0,0,0,.337.051,1.138,1.138,0,0,0,.8-.333L41.577,51.106a1.141,1.141,0,0,0,.324-.659L43.313,39.5,50.9,31.914a31.087,31.087,0,0,0,8.871-25.8ZM11.983,34.992,6.37,33.952,15.121,25.2l7.638-.985ZM22.967,52.429l-10.5-10.5,2.592-1.4,9.315,9.314Zm16.725-2.658-8.751,8.752L29.9,52.91,40.677,42.134Zm9.595-19.466L28.673,50.919l-14.7-14.7L34.588,15.605A28.987,28.987,0,0,1,45.253,8.854,13.617,13.617,0,0,0,56.039,19.64,28.977,28.977,0,0,1,49.287,30.305Zm7.437-12.852A11.354,11.354,0,0,1,47.44,8.169a29.04,29.04,0,0,1,10.165-.881A29.042,29.042,0,0,1,56.724,17.453Z" fill="#fff"/>
    <path d="M33.477,21.652a6.9,6.9,0,0,0,9.764,9.764h0a6.9,6.9,0,0,0-9.764-9.764Zm8.155,8.154a4.626,4.626,0,1,1,0-6.545A4.632,4.632,0,0,1,41.632,29.806Z" fill="#fff"/>
    <path d="M14.819,50.289a1.138,1.138,0,0,0-1.61,0L3.445,60.053a1.138,1.138,0,1,0,1.61,1.609L14.819,51.9A1.138,1.138,0,0,0,14.819,50.289Z" fill="#fff"/>
    <path d="M16.321,53.4l-4.4,4.4a1.138,1.138,0,0,0,1.609,1.609l4.4-4.4a1.138,1.138,0,1,0-1.609-1.61Z" fill="#fff"/>
    <path d="M10.382,59.811a1.138,1.138,0,1,0,1.05.7A1.148,1.148,0,0,0,10.382,59.811Z" fill="#fff"/>
    <path d="M11.432,60.514c.029.068-.028-.069,0,0Z" fill="#fff"/>
    <path d="M7.163,62.559l-.606.605a1.138,1.138,0,0,0,1.609,1.61l.606-.606a1.138,1.138,0,0,0-1.609-1.609Z" fill="#fff"/>
    <path d="M6.342,52.542a1.138,1.138,0,0,0-1.609,0l-4.4,4.4a1.138,1.138,0,0,0,1.61,1.61l4.4-4.4A1.138,1.138,0,0,0,6.342,52.542Z" fill="#fff"/>
    <path d="M8.158,52.105a1.137,1.137,0,1,0-1.225-.475c-.009-.014-.016-.024,0,0s.012.018,0,0A1.15,1.15,0,0,0,8.158,52.105Z" fill="#fff"/>
    <path d="M11.1,49.392l.606-.606A1.138,1.138,0,1,0,10.1,47.177l-.606.606A1.138,1.138,0,1,0,11.1,49.392Z" fill="#fff"/>
  </g>
</svg>
