<svg id="Layer_1" data-name="Layer 1" xmlns="http://www.w3.org/2000/svg" viewBox="0 0 60 70">
  <title>icons</title>
  <g>
    <path d="M43.548,61.129a3.871,3.871,0,1,0-3.871-3.871A3.875,3.875,0,0,0,43.548,61.129Zm0-5.806a1.936,1.936,0,1,1-1.935,1.935A1.937,1.937,0,0,1,43.548,55.323Z" fill="#fff"/>
    <path d="M23.226,53.387A3.871,3.871,0,1,0,27.1,57.258,3.875,3.875,0,0,0,23.226,53.387Zm0,5.807a1.936,1.936,0,1,1,1.935-1.936A1.938,1.938,0,0,1,23.226,59.194Z" fill="#fff"/>
    <path d="M60,37.9V8.871H42.471l.09-.746a2.844,2.844,0,0,0,.02-.332A2.8,2.8,0,0,0,39.788,5h-1.9l-.624,3.871H29.513L28.888,5h-1.9a2.8,2.8,0,0,0-2.791,2.793,2.751,2.751,0,0,0,.02.336l.089.742H0V37.9H27.823l.231,1.907L26.837,46.5a3.669,3.669,0,0,1-3.611,3.015,7.742,7.742,0,0,0,0,15.484h.153a7.736,7.736,0,0,0,7.614-6.346L33.387,46.3,35.78,58.643A7.737,7.737,0,0,0,43.4,65h.153a7.742,7.742,0,0,0,0-15.484A3.67,3.67,0,0,1,39.937,46.5L38.721,39.81l.231-1.907ZM33.871,42.742a2.9,2.9,0,1,1,2.9-2.935l-.006.061,0,.026A2.9,2.9,0,0,1,33.871,42.742ZM27.1,10.806v1.936H25.161V10.806ZM33.515,32.1H22.258V14.677H36.325ZM32.9,12.742V10.806h1.936v1.936Zm-1.935,0H29.032V10.806h1.936Zm-7.742,0H21.29V10.806h1.936Zm-3.871,0H17.419V10.806h1.936Zm-3.871,0H13.548V10.806h1.936Zm-3.871,0H9.677V10.806h1.936Zm-3.871,0H5.806V10.806H7.742Zm1.935,1.935v3.871h1.936V14.677h8.71V32.1h-8.71V20.484H9.677V32.1H1.935V14.677ZM7.742,34.032v1.936H5.806V34.032Zm1.935,0h1.936v1.936H9.677Zm3.871,0h1.936v1.936H13.548Zm3.871,0h1.936v1.936H17.419Zm3.871,0h1.936v1.936H21.29Zm3.871,0H27.1v1.936H25.161Zm3.871,0H33.2l-.169,1.053a4.792,4.792,0,0,0-2.065.908v-.025H29.033V34.032ZM41.767,14.677h6.62V27.258h1.936V14.677h7.742V32.1H50.323v-2.9H48.387v2.9H39.655Zm10.491-1.935V10.806h1.936v1.936Zm-1.935,0H48.387V10.806h1.936Zm-3.871,0H44.516V10.806h1.936Zm0,21.29v1.936H44.516V34.032Zm1.935,0h1.936v1.936H48.387Zm3.871,0h1.936v1.936H52.258Zm-12.838,0h3.161v1.936h-3.4Zm16.709,1.936V34.032h1.936v1.936Zm1.936-23.226H56.129V10.806h1.936ZM42.581,10.806v1.936H42l.234-1.936ZM39.534,6.935h.255a.858.858,0,0,1,.856.858c0,.036,0,.071-.006.1L37.191,36.336a4.843,4.843,0,0,0-2.206-1.2Zm-2.76,4.955V10.806h.176ZM26.136,7.9a1,1,0,0,1-.007-.108.858.858,0,0,1,.858-.858h.254l.313,1.936h-1.3Zm-22.265,2.9v1.936H1.935V10.806ZM1.935,34.032H3.871v1.936H1.935ZM29.092,58.3a5.8,5.8,0,0,1-5.713,4.768h-.153a5.807,5.807,0,1,1,0-11.613,5.6,5.6,0,0,0,5.515-4.6l.867-4.769a4.846,4.846,0,0,0,2.213,2.126Zm14.456-6.845a5.807,5.807,0,1,1,0,11.613H43.4a5.806,5.806,0,0,1-5.714-4.779L35.015,44.527a4.823,4.823,0,0,0,2.349-1.357l.669,3.679A5.6,5.6,0,0,0,43.548,51.452Z" fill="#fff"/>
    <path d="M25.161,17.707V29.066l8.52-5.679ZM27.1,21.325l3.093,2.062L27.1,25.449Z" fill="#fff"/>
  </g>
</svg>
