<svg id="Layer_1" data-name="Layer 1" xmlns="http://www.w3.org/2000/svg" viewBox="0 0 60 70">
  <title>icons</title>
  <path d="M22.613,11.589a1.16,1.16,0,0,0,1.641,1.641l4.585-4.585v21.2A27.692,27.692,0,0,0,13.66,35.134l-7.6-11.408,6.078,1.517a1.162,1.162,0,0,0,1.408-.846,1.188,1.188,0,0,0,.034-.282A1.161,1.161,0,0,0,12.7,22.99L2.561,20.463.033,30.6a1.162,1.162,0,0,0,2.254.562L3.9,24.681l7.934,11.9A27.792,27.792,0,0,0,2.145,57.673H4.466a25.471,25.471,0,0,1,8.667-19.145l3.261,4.891a19.661,19.661,0,0,0-6.125,14.254v1.161h11.7a8.113,8.113,0,0,0,16.063,0h11.7V57.673A19.657,19.657,0,0,0,43.605,43.42l3.262-4.892a25.474,25.474,0,0,1,8.666,19.146h2.322a27.793,27.793,0,0,0-9.692-21.091l7.935-11.9,1.615,6.479A1.161,1.161,0,0,0,60,30.879a1.188,1.188,0,0,0-.034-.282L57.438,20.463,47.3,22.99a1.161,1.161,0,0,0,.563,2.253l6.078-1.517L46.339,35.135A27.69,27.69,0,0,0,31.16,29.848V8.645l4.585,4.585a1.16,1.16,0,1,0,1.641-1.641L30,4.2Zm6.226,28.732v9.321a8.074,8.074,0,0,0-4.207,1.95l-5.171-7.757A17.308,17.308,0,0,1,28.839,40.321ZM12.629,56.513A17.341,17.341,0,0,1,17.7,45.384l5.373,8.059a8.06,8.06,0,0,0-1.109,3.07ZM30,63.476a5.8,5.8,0,1,1,5.8-5.8A5.81,5.81,0,0,1,30,63.476Zm17.37-6.963H38.031a8.049,8.049,0,0,0-1.109-3.069l5.373-8.06A17.346,17.346,0,0,1,47.37,56.513ZM40.538,43.835l-5.171,7.756a8.08,8.08,0,0,0-4.207-1.949V40.321A17.3,17.3,0,0,1,40.538,43.835Zm4.513-6.77L41.82,41.913A19.585,19.585,0,0,0,31.16,38V32.169A25.386,25.386,0,0,1,45.051,37.065ZM28.839,38a19.585,19.585,0,0,0-10.66,3.911l-3.231-4.848a25.386,25.386,0,0,1,13.891-4.9Z" fill="#fff"/>
</svg>
