<svg id="Layer_1" data-name="Layer 1" xmlns="http://www.w3.org/2000/svg" viewBox="0 0 60 70">
  <title>icons</title>
  <g>
    <path d="M23.673,47.041a.983.983,0,0,1-.641-.237l-6.41-5.458a.991.991,0,0,1,0-1.508l6.41-5.458a.99.99,0,1,1,1.284,1.508l-5.524,4.7,5.524,4.7a.991.991,0,0,1-.643,1.745Z" fill="#fff"/>
    <path d="M36.327,47.041a.991.991,0,0,1-.643-1.745l5.524-4.7-5.524-4.7a.99.99,0,1,1,1.284-1.508l6.41,5.458a.991.991,0,0,1,0,1.508L36.968,46.8A.983.983,0,0,1,36.327,47.041Z" fill="#fff"/>
    <path d="M27.731,51.135a.969.969,0,0,1-.206-.022.99.99,0,0,1-.765-1.173l3.995-18.967a.991.991,0,1,1,1.939.408l-4,18.967A.991.991,0,0,1,27.731,51.135Z" fill="#fff"/>
    <path d="M53.349,61.468H6.651A6.658,6.658,0,0,1,0,54.817V15.183A6.659,6.659,0,0,1,6.651,8.532h46.7A6.659,6.659,0,0,1,60,15.183V54.817A6.658,6.658,0,0,1,53.349,61.468ZM6.651,10.513a4.675,4.675,0,0,0-4.67,4.67V54.817a4.675,4.675,0,0,0,4.67,4.67h46.7a4.675,4.675,0,0,0,4.67-4.67V15.183a4.675,4.675,0,0,0-4.67-4.67Z" fill="#fff"/>
    <path d="M59.009,24.393H.991a.991.991,0,1,1,0-1.981H59.009a.991.991,0,1,1,0,1.981Z" fill="#fff"/>
    <path d="M16.925,19.653a3.135,3.135,0,1,1,3.135-3.134A3.139,3.139,0,0,1,16.925,19.653Zm0-4.288a1.154,1.154,0,1,0,1.153,1.154A1.155,1.155,0,0,0,16.925,15.365Z" fill="#fff"/>
    <path d="M7.293,19.623a3.135,3.135,0,1,1,3.135-3.135A3.139,3.139,0,0,1,7.293,19.623Zm0-4.288a1.154,1.154,0,1,0,1.154,1.153A1.155,1.155,0,0,0,7.293,15.335Z" fill="#fff"/>
    <path d="M26.556,19.683a3.135,3.135,0,1,1,3.135-3.135A3.138,3.138,0,0,1,26.556,19.683Zm0-4.288a1.154,1.154,0,1,0,1.154,1.153A1.155,1.155,0,0,0,26.556,15.4Z" fill="#fff"/>
  </g>
</svg>
