<svg id="Layer_1" data-name="Layer 1" xmlns="http://www.w3.org/2000/svg" viewBox="0 0 60 70">
  <title>icons</title>
  <g>
    <path d="M36.269,28.639a1.185,1.185,0,0,1-.393-.067L30,26.482l-5.876,2.09a1.173,1.173,0,0,1-1.564-1.137l.171-6.234-3.8-4.943a1.172,1.172,0,0,1,.6-1.839l5.982-1.763,3.525-5.145a1.173,1.173,0,0,1,1.934,0l3.526,5.145,5.982,1.763a1.172,1.172,0,0,1,.6,1.839l-3.8,4.943.172,6.234a1.173,1.173,0,0,1-1.172,1.2ZM21.829,16.184,24.843,20.1a1.175,1.175,0,0,1,.243.747L24.95,25.79l4.657-1.656a1.178,1.178,0,0,1,.786,0L35.05,25.79l-.135-4.941a1.168,1.168,0,0,1,.242-.747l3.015-3.918-4.742-1.4a1.171,1.171,0,0,1-.635-.461L30,10.247l-2.8,4.078a1.168,1.168,0,0,1-.635.461Z" fill="#fff"/>
    <path d="M47.082,17.849a1.171,1.171,0,0,1-1.171-1.2l.072-2.626-1.6-2.083a1.172,1.172,0,0,1,.6-1.838l2.52-.743,1.486-2.168a1.172,1.172,0,0,1,1.933,0L52.4,9.355l2.52.743a1.172,1.172,0,0,1,.6,1.838l-1.6,2.083.072,2.626a1.172,1.172,0,0,1-1.563,1.137L49.95,16.9l-2.475.881A1.185,1.185,0,0,1,47.082,17.849Zm2.868-3.363a1.176,1.176,0,0,1,.393.067L51.6,15l-.036-1.334a1.167,1.167,0,0,1,.242-.746l.814-1.058-1.28-.377a1.174,1.174,0,0,1-.636-.462l-.754-1.1-.754,1.1a1.175,1.175,0,0,1-.636.462l-1.28.377.814,1.058a1.167,1.167,0,0,1,.242.746L48.3,15l1.257-.447A1.181,1.181,0,0,1,49.95,14.486Z" fill="#fff"/>
    <path d="M12.918,17.849a1.189,1.189,0,0,1-.393-.067L10.05,16.9l-2.476.881A1.172,1.172,0,0,1,6.01,16.645l.072-2.626-1.6-2.083a1.172,1.172,0,0,1,.6-1.839L7.6,9.354,9.083,7.187a1.173,1.173,0,0,1,1.934,0L12.5,9.354l2.52.744a1.172,1.172,0,0,1,.6,1.838l-1.6,2.082.073,2.627a1.173,1.173,0,0,1-1.172,1.2ZM10.05,14.486a1.181,1.181,0,0,1,.393.067L11.7,15l-.037-1.334a1.174,1.174,0,0,1,.243-.746l.813-1.058-1.279-.377a1.171,1.171,0,0,1-.636-.462l-.754-1.1-.755,1.1a1.17,1.17,0,0,1-.635.462l-1.28.377.814,1.058a1.174,1.174,0,0,1,.243.746L8.4,15l1.257-.447A1.176,1.176,0,0,1,10.05,14.486Z" fill="#fff"/>
    <path d="M30,55.135a1.168,1.168,0,0,1-.228-.023,1.139,1.139,0,0,1-.22-.067,1.151,1.151,0,0,1-.2-.108,1.084,1.084,0,0,1-.178-.145,1.164,1.164,0,0,1-.254-.381,1.138,1.138,0,0,1-.066-.676,1.136,1.136,0,0,1,.066-.22,1.221,1.221,0,0,1,.108-.2,1.144,1.144,0,0,1,.146-.178,1.193,1.193,0,0,1,.38-.253,1.139,1.139,0,0,1,.22-.067,1.172,1.172,0,0,1,.457,0,1.13,1.13,0,0,1,.219.067,1.147,1.147,0,0,1,.526.431,1.151,1.151,0,0,1,.108.2,1.136,1.136,0,0,1,.066.22,1.1,1.1,0,0,1,0,.457,1.177,1.177,0,0,1-.066.219,1.182,1.182,0,0,1-.253.381,1.092,1.092,0,0,1-.179.145,1.151,1.151,0,0,1-.2.108,1.13,1.13,0,0,1-.219.067A1.186,1.186,0,0,1,30,55.135Z" fill="#fff"/>
    <path d="M30,51.268A1.172,1.172,0,0,1,28.828,50.1V30.76a1.172,1.172,0,1,1,2.344,0V50.1A1.172,1.172,0,0,1,30,51.268Z" fill="#fff"/>
    <path d="M49.892,43.8a1.129,1.129,0,0,1-.183-.015,1.172,1.172,0,0,1-.875-.654L46.727,38.7,42.3,36.6a1.17,1.17,0,0,1-.3-1.909l3.562-3.372.634-4.865a1.172,1.172,0,0,1,1.723-.878l4.308,2.346,4.822-.9a1.172,1.172,0,0,1,1.367,1.367l-.9,4.822,2.346,4.309a1.172,1.172,0,0,1-.878,1.722l-4.864.634-3.372,3.563A1.172,1.172,0,0,1,49.892,43.8Zm-5.045-8.589,3.263,1.551a1.177,1.177,0,0,1,.556.556l1.55,3.262L52.7,37.958a1.176,1.176,0,0,1,.7-.357l3.582-.467-1.728-3.172a1.175,1.175,0,0,1-.122-.776l.662-3.551-3.55.663a1.175,1.175,0,0,1-.776-.123l-3.173-1.727-.466,3.582a1.17,1.17,0,0,1-.357.7Z" fill="#fff"/>
    <path d="M32.068,63.322c-.04,0-.081,0-.122-.005A1.173,1.173,0,0,1,30.9,62.03a30.919,30.919,0,0,1,7.212-16.5,32.183,32.183,0,0,1,6.144-5.75,1.172,1.172,0,0,1,1.3,1.951,29.569,29.569,0,0,0-5.646,5.3,28.591,28.591,0,0,0-6.678,15.24A1.171,1.171,0,0,1,32.068,63.322Z" fill="#fff"/>
    <path d="M10.108,43.8a1.172,1.172,0,0,1-.851-.367L5.885,39.872,1.02,39.238a1.173,1.173,0,0,1-.877-1.723l2.346-4.308-.9-4.823a1.172,1.172,0,0,1,1.367-1.367l4.822.9,4.308-2.347a1.171,1.171,0,0,1,1.722.878l.634,4.865,3.564,3.372a1.172,1.172,0,0,1-.3,1.909L13.272,38.7l-2.105,4.431a1.174,1.174,0,0,1-.876.654A1.129,1.129,0,0,1,10.108,43.8ZM3.019,37.134,6.6,37.6a1.17,1.17,0,0,1,.7.357l2.484,2.623,1.551-3.262a1.17,1.17,0,0,1,.555-.556l3.262-1.551-2.623-2.483a1.17,1.17,0,0,1-.357-.7l-.467-3.582L8.533,30.176a1.173,1.173,0,0,1-.775.122l-3.552-.663.663,3.551a1.168,1.168,0,0,1-.122.776Z" fill="#fff"/>
    <path d="M27.932,63.322a1.171,1.171,0,0,1-1.164-1.051,28.591,28.591,0,0,0-6.678-15.24,29.548,29.548,0,0,0-5.646-5.3,1.172,1.172,0,0,1,1.3-1.951,32.183,32.183,0,0,1,6.145,5.75A30.919,30.919,0,0,1,29.1,62.03a1.171,1.171,0,0,1-1.045,1.286A1.007,1.007,0,0,1,27.932,63.322Z" fill="#fff"/>
    <path d="M39.206,63.1a1.172,1.172,0,0,1-1.064-1.661A17.746,17.746,0,0,1,45.1,53.8a18.215,18.215,0,0,1,4.406-1.992,1.172,1.172,0,0,1,.6,2.265,16.25,16.25,0,0,0-3.79,1.729,15.4,15.4,0,0,0-6.047,6.616A1.171,1.171,0,0,1,39.206,63.1Z" fill="#fff"/>
    <path d="M21.905,63.1a1.171,1.171,0,0,1-1.066-.683,15.393,15.393,0,0,0-6.047-6.616A16.23,16.23,0,0,0,11,54.076a1.172,1.172,0,0,1,.6-2.265A18.225,18.225,0,0,1,16.012,53.8a17.746,17.746,0,0,1,6.957,7.64A1.171,1.171,0,0,1,22.392,63,1.158,1.158,0,0,1,21.905,63.1Z" fill="#fff"/>
    <path d="M54.591,48.219a1.172,1.172,0,0,1-1.172-1.172v-.975a1.172,1.172,0,1,1,2.344,0v.975A1.171,1.171,0,0,1,54.591,48.219Z" fill="#fff"/>
    <path d="M54.591,53.511a1.172,1.172,0,0,1-1.172-1.172v-.976a1.172,1.172,0,0,1,2.344,0v.976A1.172,1.172,0,0,1,54.591,53.511Z" fill="#fff"/>
    <path d="M57.725,50.377h-.976a1.172,1.172,0,1,1,0-2.343h.976a1.172,1.172,0,1,1,0,2.343Z" fill="#fff"/>
    <path d="M52.434,50.377h-.976a1.172,1.172,0,1,1,0-2.343h.976a1.172,1.172,0,1,1,0,2.343Z" fill="#fff"/>
    <path d="M5.408,48.219a1.171,1.171,0,0,1-1.171-1.172v-.975a1.172,1.172,0,1,1,2.343,0v.975A1.171,1.171,0,0,1,5.408,48.219Z" fill="#fff"/>
    <path d="M5.408,53.511a1.172,1.172,0,0,1-1.171-1.172v-.976a1.172,1.172,0,1,1,2.343,0v.976A1.172,1.172,0,0,1,5.408,53.511Z" fill="#fff"/>
    <path d="M8.542,50.377H7.566a1.172,1.172,0,1,1,0-2.343h.976a1.172,1.172,0,1,1,0,2.343Z" fill="#fff"/>
    <path d="M3.251,50.377H2.275a1.172,1.172,0,1,1,0-2.343h.976a1.172,1.172,0,1,1,0,2.343Z" fill="#fff"/>
    <path d="M32.068,63.322c-.04,0-.081,0-.122-.005A1.173,1.173,0,0,1,30.9,62.03a30.919,30.919,0,0,1,7.212-16.5,32.183,32.183,0,0,1,6.144-5.75,1.172,1.172,0,0,1,1.3,1.951,29.569,29.569,0,0,0-5.646,5.3c-2.656,3.177-6.931,14.987-6.678,15.24A1.171,1.171,0,0,1,32.068,63.322Z" fill="#fff"/>
  </g>
</svg>
