<svg id="Layer_1" data-name="Layer 1" xmlns="http://www.w3.org/2000/svg" viewBox="0 0 60 70">
  <title>icons</title>
  <path d="M60,44.876c0-.032,0-.064,0-.1s-.006-.066-.01-.1c0-.014,0-.027,0-.041L55.081,12.8a1.837,1.837,0,0,0-1.816-1.557H46.531v-.857a1.837,1.837,0,0,0-1.837-1.837H29.911L27.969,4.668a1.836,1.836,0,0,0-1.642-1.015H15.306A1.837,1.837,0,0,0,13.469,5.49v5.755H6.735A1.837,1.837,0,0,0,4.919,12.8L.021,44.639c0,.014,0,.027,0,.041,0,.033-.007.066-.01.1s0,.065,0,.1c0,.014,0,.028,0,.042V64.51a1.836,1.836,0,0,0,1.837,1.837H58.163A1.836,1.836,0,0,0,60,64.51V44.918c0-.014,0-.028,0-.042ZM51.69,14.918l4.332,28.164H51.429v-7.96a1.837,1.837,0,0,0-1.837-1.836H48.98V22.878a1.837,1.837,0,0,0-1.837-1.837h-.612V14.918ZM38.571,43.082A1.836,1.836,0,0,0,36.929,44.1L34.987,47.98H25.013L23.071,44.1a1.836,1.836,0,0,0-1.642-1.015H12.245V32.061h8.048l1.942,3.883a1.837,1.837,0,0,0,1.643,1.015H47.755v6.123ZM14.694,19.816h8.048L24.684,23.7a1.837,1.837,0,0,0,1.643,1.015H45.306v8.572H25.013L23.071,29.4a1.836,1.836,0,0,0-1.642-1.015H14.694ZM17.143,7.327h8.048l1.942,3.882a1.837,1.837,0,0,0,1.643,1.015H42.857v8.817H27.462L25.52,17.158a1.836,1.836,0,0,0-1.642-1.015H17.143ZM8.31,14.918h5.159v1.225h-.612A1.837,1.837,0,0,0,11.02,17.98V28.388h-.612a1.837,1.837,0,0,0-1.837,1.836V43.082H3.978ZM56.327,62.673H3.673V46.755h16.62l1.942,3.883a1.837,1.837,0,0,0,1.643,1.015H36.122a1.837,1.837,0,0,0,1.643-1.015l1.942-3.883h16.62Z" fill="#fff"/>
</svg>
