<svg id="Layer_1" data-name="Layer 1" xmlns="http://www.w3.org/2000/svg" viewBox="0 0 60 70">
  <title>icons</title>
  <g>
    <g>
      <path d="M51.213,13.787a1.758,1.758,0,0,0-2.486,2.486,26.513,26.513,0,0,1,0,37.454,1.758,1.758,0,1,0,2.485,2.486,30,30,0,0,0,0-42.426Z" fill="#fff"/>
      <path d="M3.516,35a26.311,26.311,0,0,1,7.757-18.727,1.758,1.758,0,0,0-2.486-2.486,30,30,0,0,0,0,42.426,1.758,1.758,0,1,0,2.486-2.486A26.311,26.311,0,0,1,3.516,35Z" fill="#fff"/>
      <path d="M44.557,20.443a1.758,1.758,0,0,0-2.486,2.486,17.092,17.092,0,0,1,0,24.142,1.758,1.758,0,1,0,2.485,2.486,20.61,20.61,0,0,0,0-29.114Z" fill="#fff"/>
      <path d="M12.93,35a16.959,16.959,0,0,1,5-12.071,1.758,1.758,0,1,0-2.486-2.486,20.586,20.586,0,0,0,0,29.114,1.758,1.758,0,1,0,2.486-2.486A16.957,16.957,0,0,1,12.93,35Z" fill="#fff"/>
      <path d="M30,23.828A11.172,11.172,0,1,0,41.172,35,11.185,11.185,0,0,0,30,23.828Z" fill="#fff"/>
    </g>
    <g>
      <path d="M51.213,13.787a1.758,1.758,0,0,0-2.486,2.486,26.513,26.513,0,0,1,0,37.454,1.758,1.758,0,1,0,2.485,2.486,30,30,0,0,0,0-42.426Z" fill="#fff"/>
      <path d="M3.516,35a26.311,26.311,0,0,1,7.757-18.727,1.758,1.758,0,0,0-2.486-2.486,30,30,0,0,0,0,42.426,1.758,1.758,0,1,0,2.486-2.486A26.311,26.311,0,0,1,3.516,35Z" fill="#fff"/>
      <path d="M44.557,20.443a1.758,1.758,0,0,0-2.486,2.486,17.092,17.092,0,0,1,0,24.142,1.758,1.758,0,1,0,2.485,2.486,20.61,20.61,0,0,0,0-29.114Z" fill="#fff"/>
      <path d="M12.93,35a16.959,16.959,0,0,1,5-12.071,1.758,1.758,0,1,0-2.486-2.486,20.586,20.586,0,0,0,0,29.114,1.758,1.758,0,1,0,2.486-2.486A16.957,16.957,0,0,1,12.93,35Z" fill="#fff"/>
      <path d="M30,23.828A11.172,11.172,0,1,0,41.172,35,11.185,11.185,0,0,0,30,23.828Z" fill="#fff"/>
    </g>
  </g>
</svg>
